<mxfile host="app.diagrams.net" modified="2020-09-12T15:46:32.095Z" agent="5.0 (Windows NT 10.0; Win64; x64) AppleWebKit/537.36 (KHTML, like Gecko) Chrome/85.0.4183.102 Safari/537.36" etag="33gXpS7FtdiI1q-sCJbI" version="13.6.10" type="github">
  <diagram id="C5RBs43oDa-KdzZeNtuy" name="Page-1">
    <mxGraphModel dx="865" dy="463" grid="1" gridSize="10" guides="1" tooltips="1" connect="1" arrows="1" fold="1" page="1" pageScale="1" pageWidth="827" pageHeight="1169" math="0" shadow="0">
      <root>
        <mxCell id="WIyWlLk6GJQsqaUBKTNV-0" />
        <mxCell id="WIyWlLk6GJQsqaUBKTNV-1" parent="WIyWlLk6GJQsqaUBKTNV-0" />
        <mxCell id="6yo-n3ICvkUfcPnkowhK-2" value="" style="edgeStyle=orthogonalEdgeStyle;rounded=0;orthogonalLoop=1;jettySize=auto;html=1;" edge="1" parent="WIyWlLk6GJQsqaUBKTNV-1" target="6yo-n3ICvkUfcPnkowhK-1">
          <mxGeometry relative="1" as="geometry">
            <mxPoint x="390" y="150" as="sourcePoint" />
          </mxGeometry>
        </mxCell>
        <mxCell id="6yo-n3ICvkUfcPnkowhK-4" value="" style="edgeStyle=orthogonalEdgeStyle;rounded=0;orthogonalLoop=1;jettySize=auto;html=1;" edge="1" parent="WIyWlLk6GJQsqaUBKTNV-1" source="6yo-n3ICvkUfcPnkowhK-0" target="6yo-n3ICvkUfcPnkowhK-3">
          <mxGeometry relative="1" as="geometry" />
        </mxCell>
        <mxCell id="6yo-n3ICvkUfcPnkowhK-0" value="企业期望评价" style="rounded=0;whiteSpace=wrap;html=1;" vertex="1" parent="WIyWlLk6GJQsqaUBKTNV-1">
          <mxGeometry x="330" y="100" width="120" height="30" as="geometry" />
        </mxCell>
        <mxCell id="6yo-n3ICvkUfcPnkowhK-11" value="" style="edgeStyle=orthogonalEdgeStyle;rounded=0;orthogonalLoop=1;jettySize=auto;html=1;" edge="1" parent="WIyWlLk6GJQsqaUBKTNV-1" source="6yo-n3ICvkUfcPnkowhK-1" target="6yo-n3ICvkUfcPnkowhK-10">
          <mxGeometry relative="1" as="geometry">
            <Array as="points">
              <mxPoint x="530" y="210" />
              <mxPoint x="440" y="210" />
            </Array>
          </mxGeometry>
        </mxCell>
        <mxCell id="6yo-n3ICvkUfcPnkowhK-16" value="" style="edgeStyle=orthogonalEdgeStyle;rounded=0;orthogonalLoop=1;jettySize=auto;html=1;exitX=0.75;exitY=1;exitDx=0;exitDy=0;" edge="1" parent="WIyWlLk6GJQsqaUBKTNV-1" source="6yo-n3ICvkUfcPnkowhK-1" target="6yo-n3ICvkUfcPnkowhK-15">
          <mxGeometry relative="1" as="geometry">
            <Array as="points">
              <mxPoint x="530" y="200" />
            </Array>
          </mxGeometry>
        </mxCell>
        <mxCell id="6yo-n3ICvkUfcPnkowhK-22" value="" style="edgeStyle=orthogonalEdgeStyle;rounded=0;orthogonalLoop=1;jettySize=auto;html=1;" edge="1" parent="WIyWlLk6GJQsqaUBKTNV-1" target="6yo-n3ICvkUfcPnkowhK-21">
          <mxGeometry relative="1" as="geometry">
            <mxPoint x="500" y="210" as="sourcePoint" />
          </mxGeometry>
        </mxCell>
        <mxCell id="6yo-n3ICvkUfcPnkowhK-24" value="" style="edgeStyle=orthogonalEdgeStyle;rounded=0;orthogonalLoop=1;jettySize=auto;html=1;" edge="1" parent="WIyWlLk6GJQsqaUBKTNV-1" target="6yo-n3ICvkUfcPnkowhK-23">
          <mxGeometry relative="1" as="geometry">
            <mxPoint x="500" y="210" as="sourcePoint" />
          </mxGeometry>
        </mxCell>
        <mxCell id="6yo-n3ICvkUfcPnkowhK-27" value="" style="edgeStyle=orthogonalEdgeStyle;rounded=0;orthogonalLoop=1;jettySize=auto;html=1;" edge="1" parent="WIyWlLk6GJQsqaUBKTNV-1" target="6yo-n3ICvkUfcPnkowhK-26">
          <mxGeometry relative="1" as="geometry">
            <mxPoint x="470" y="210" as="sourcePoint" />
            <Array as="points">
              <mxPoint x="440" y="210" />
            </Array>
          </mxGeometry>
        </mxCell>
        <mxCell id="6yo-n3ICvkUfcPnkowhK-29" value="" style="edgeStyle=orthogonalEdgeStyle;rounded=0;orthogonalLoop=1;jettySize=auto;html=1;" edge="1" parent="WIyWlLk6GJQsqaUBKTNV-1" source="6yo-n3ICvkUfcPnkowhK-1" target="6yo-n3ICvkUfcPnkowhK-28">
          <mxGeometry relative="1" as="geometry">
            <Array as="points">
              <mxPoint x="530" y="220" />
              <mxPoint x="530" y="220" />
            </Array>
          </mxGeometry>
        </mxCell>
        <mxCell id="6yo-n3ICvkUfcPnkowhK-31" value="" style="edgeStyle=orthogonalEdgeStyle;rounded=0;orthogonalLoop=1;jettySize=auto;html=1;" edge="1" parent="WIyWlLk6GJQsqaUBKTNV-1" target="6yo-n3ICvkUfcPnkowhK-30">
          <mxGeometry relative="1" as="geometry">
            <mxPoint x="620" y="210" as="sourcePoint" />
          </mxGeometry>
        </mxCell>
        <mxCell id="6yo-n3ICvkUfcPnkowhK-33" value="" style="edgeStyle=orthogonalEdgeStyle;rounded=0;orthogonalLoop=1;jettySize=auto;html=1;" edge="1" parent="WIyWlLk6GJQsqaUBKTNV-1" target="6yo-n3ICvkUfcPnkowhK-32">
          <mxGeometry relative="1" as="geometry">
            <mxPoint x="710" y="210" as="sourcePoint" />
          </mxGeometry>
        </mxCell>
        <mxCell id="6yo-n3ICvkUfcPnkowhK-1" value="企业自身实力" style="whiteSpace=wrap;html=1;rounded=0;" vertex="1" parent="WIyWlLk6GJQsqaUBKTNV-1">
          <mxGeometry x="470" y="170" width="120" height="30" as="geometry" />
        </mxCell>
        <mxCell id="6yo-n3ICvkUfcPnkowhK-7" value="" style="edgeStyle=orthogonalEdgeStyle;rounded=0;orthogonalLoop=1;jettySize=auto;html=1;" edge="1" parent="WIyWlLk6GJQsqaUBKTNV-1" source="6yo-n3ICvkUfcPnkowhK-3" target="6yo-n3ICvkUfcPnkowhK-6">
          <mxGeometry relative="1" as="geometry" />
        </mxCell>
        <mxCell id="6yo-n3ICvkUfcPnkowhK-9" value="" style="edgeStyle=orthogonalEdgeStyle;rounded=0;orthogonalLoop=1;jettySize=auto;html=1;" edge="1" parent="WIyWlLk6GJQsqaUBKTNV-1" source="6yo-n3ICvkUfcPnkowhK-3" target="6yo-n3ICvkUfcPnkowhK-8">
          <mxGeometry relative="1" as="geometry" />
        </mxCell>
        <mxCell id="6yo-n3ICvkUfcPnkowhK-3" value="企业信誉评级" style="whiteSpace=wrap;html=1;rounded=0;" vertex="1" parent="WIyWlLk6GJQsqaUBKTNV-1">
          <mxGeometry x="230" y="170" width="120" height="30" as="geometry" />
        </mxCell>
        <mxCell id="6yo-n3ICvkUfcPnkowhK-5" style="edgeStyle=orthogonalEdgeStyle;rounded=0;orthogonalLoop=1;jettySize=auto;html=1;exitX=0.5;exitY=1;exitDx=0;exitDy=0;" edge="1" parent="WIyWlLk6GJQsqaUBKTNV-1" source="6yo-n3ICvkUfcPnkowhK-1" target="6yo-n3ICvkUfcPnkowhK-1">
          <mxGeometry relative="1" as="geometry" />
        </mxCell>
        <mxCell id="6yo-n3ICvkUfcPnkowhK-6" value="企业是否违规" style="whiteSpace=wrap;html=1;rounded=0;" vertex="1" parent="WIyWlLk6GJQsqaUBKTNV-1">
          <mxGeometry x="200" y="240" width="80" height="30" as="geometry" />
        </mxCell>
        <mxCell id="6yo-n3ICvkUfcPnkowhK-8" value="信誉等级" style="whiteSpace=wrap;html=1;rounded=0;" vertex="1" parent="WIyWlLk6GJQsqaUBKTNV-1">
          <mxGeometry x="300" y="240" width="80" height="30" as="geometry" />
        </mxCell>
        <mxCell id="6yo-n3ICvkUfcPnkowhK-15" value="下游企业数目" style="whiteSpace=wrap;html=1;rounded=0;" vertex="1" parent="WIyWlLk6GJQsqaUBKTNV-1">
          <mxGeometry x="490" y="240" width="80" height="30" as="geometry" />
        </mxCell>
        <mxCell id="6yo-n3ICvkUfcPnkowhK-10" value="上游企业数目" style="whiteSpace=wrap;html=1;rounded=0;" vertex="1" parent="WIyWlLk6GJQsqaUBKTNV-1">
          <mxGeometry x="400" y="240" width="80" height="30" as="geometry" />
        </mxCell>
        <mxCell id="6yo-n3ICvkUfcPnkowhK-21" value="上游企业价税合计" style="whiteSpace=wrap;html=1;rounded=0;" vertex="1" parent="WIyWlLk6GJQsqaUBKTNV-1">
          <mxGeometry x="580" y="240" width="80" height="30" as="geometry" />
        </mxCell>
        <mxCell id="6yo-n3ICvkUfcPnkowhK-23" value="下游企业价税合计" style="whiteSpace=wrap;html=1;rounded=0;" vertex="1" parent="WIyWlLk6GJQsqaUBKTNV-1">
          <mxGeometry x="670" y="240" width="80" height="30" as="geometry" />
        </mxCell>
        <mxCell id="6yo-n3ICvkUfcPnkowhK-26" value="进项发票金额" style="whiteSpace=wrap;html=1;rounded=0;" vertex="1" parent="WIyWlLk6GJQsqaUBKTNV-1">
          <mxGeometry x="400" y="280" width="80" height="30" as="geometry" />
        </mxCell>
        <mxCell id="6yo-n3ICvkUfcPnkowhK-28" value="销项发票金额" style="whiteSpace=wrap;html=1;rounded=0;" vertex="1" parent="WIyWlLk6GJQsqaUBKTNV-1">
          <mxGeometry x="490" y="280" width="80" height="30" as="geometry" />
        </mxCell>
        <mxCell id="6yo-n3ICvkUfcPnkowhK-30" value="进项发票有效率" style="whiteSpace=wrap;html=1;rounded=0;" vertex="1" parent="WIyWlLk6GJQsqaUBKTNV-1">
          <mxGeometry x="580" y="280" width="80" height="30" as="geometry" />
        </mxCell>
        <mxCell id="6yo-n3ICvkUfcPnkowhK-32" value="销项发票有效率" style="whiteSpace=wrap;html=1;rounded=0;" vertex="1" parent="WIyWlLk6GJQsqaUBKTNV-1">
          <mxGeometry x="670" y="280" width="80" height="30" as="geometry" />
        </mxCell>
      </root>
    </mxGraphModel>
  </diagram>
</mxfile>
